<svg width="83" height="37" viewBox="0 0 83 37" fill="none" xmlns="http://www.w3.org/2000/svg">
<path d="M5.6 24.56H17.16V29H0.22V0.079998H5.6V24.56ZM28.2466 8.16C29.7666 8.16 31.1466 8.40667 32.3866 8.9C33.6399 9.39333 34.7066 10.0933 35.5866 11C36.4799 11.9067 37.1666 13.0133 37.6466 14.32C38.1266 15.6267 38.3666 17.0867 38.3666 18.7C38.3666 20.3267 38.1266 21.7933 37.6466 23.1C37.1666 24.4067 36.4799 25.52 35.5866 26.44C34.7066 27.36 33.6399 28.0667 32.3866 28.56C31.1466 29.0533 29.7666 29.3 28.2466 29.3C26.7132 29.3 25.3199 29.0533 24.0666 28.56C22.8132 28.0667 21.7399 27.36 20.8466 26.44C19.9666 25.52 19.2799 24.4067 18.7866 23.1C18.3066 21.7933 18.0666 20.3267 18.0666 18.7C18.0666 17.0867 18.3066 15.6267 18.7866 14.32C19.2799 13.0133 19.9666 11.9067 20.8466 11C21.7399 10.0933 22.8132 9.39333 24.0666 8.9C25.3199 8.40667 26.7132 8.16 28.2466 8.16ZM28.2466 25.5C29.9532 25.5 31.2132 24.9267 32.0266 23.78C32.8532 22.6333 33.2666 20.9533 33.2666 18.74C33.2666 16.5267 32.8532 14.84 32.0266 13.68C31.2132 12.52 29.9532 11.94 28.2466 11.94C26.5132 11.94 25.2266 12.5267 24.3866 13.7C23.5599 14.86 23.1466 16.54 23.1466 18.74C23.1466 20.94 23.5599 22.62 24.3866 23.78C25.2266 24.9267 26.5132 25.5 28.2466 25.5ZM49.6353 8.12C50.5153 8.12 51.3353 8.21333 52.0953 8.4C52.8686 8.57333 53.582 8.83333 54.2353 9.18H60.1353V11.02C60.1353 11.6067 59.782 11.9667 59.0753 12.1L57.2353 12.44C57.3686 12.7867 57.4686 13.1533 57.5353 13.54C57.6153 13.9267 57.6553 14.3333 57.6553 14.76C57.6553 15.7733 57.4486 16.6933 57.0353 17.52C56.6353 18.3333 56.0753 19.0267 55.3553 19.6C54.6353 20.1733 53.782 20.62 52.7953 20.94C51.822 21.2467 50.7686 21.4 49.6353 21.4C48.862 21.4 48.1086 21.3267 47.3753 21.18C46.7353 21.5667 46.4153 22 46.4153 22.48C46.4153 22.8933 46.602 23.2 46.9753 23.4C47.362 23.5867 47.8686 23.72 48.4953 23.8C49.122 23.88 49.8353 23.9333 50.6353 23.96C51.4353 23.9733 52.2553 24.0133 53.0953 24.08C53.9353 24.1467 54.7553 24.2667 55.5553 24.44C56.3553 24.6 57.0686 24.86 57.6953 25.22C58.322 25.58 58.822 26.0733 59.1953 26.7C59.582 27.3133 59.7753 28.1067 59.7753 29.08C59.7753 29.9867 59.5486 30.8667 59.0953 31.72C58.6553 32.5733 58.0086 33.3333 57.1553 34C56.3153 34.6667 55.2753 35.2 54.0353 35.6C52.8086 36.0133 51.4086 36.22 49.8353 36.22C48.2886 36.22 46.942 36.0667 45.7953 35.76C44.6486 35.4667 43.6953 35.0667 42.9353 34.56C42.1753 34.0667 41.6086 33.4933 41.2353 32.84C40.862 32.1867 40.6753 31.5067 40.6753 30.8C40.6753 29.8533 40.962 29.0533 41.5353 28.4C42.122 27.7467 42.9153 27.2267 43.9153 26.84C43.382 26.56 42.9553 26.1867 42.6353 25.72C42.3153 25.2533 42.1553 24.64 42.1553 23.88C42.1553 23.5733 42.2086 23.26 42.3153 22.94C42.422 22.6067 42.582 22.28 42.7953 21.96C43.022 21.64 43.302 21.34 43.6353 21.06C43.982 20.7667 44.382 20.5067 44.8353 20.28C43.7953 19.72 42.9753 18.9733 42.3753 18.04C41.7886 17.1067 41.4953 16.0133 41.4953 14.76C41.4953 13.7467 41.6953 12.8333 42.0953 12.02C42.5086 11.1933 43.0753 10.4933 43.7953 9.92C44.5286 9.33333 45.3886 8.88667 46.3753 8.58C47.3753 8.27333 48.462 8.12 49.6353 8.12ZM55.2153 29.92C55.2153 29.52 55.0953 29.2 54.8553 28.96C54.6153 28.7067 54.2886 28.5067 53.8753 28.36C53.462 28.2133 52.9753 28.1067 52.4153 28.04C51.8686 27.9733 51.282 27.9267 50.6553 27.9C50.042 27.86 49.402 27.8267 48.7353 27.8C48.082 27.7733 47.442 27.72 46.8153 27.64C46.2686 27.9467 45.822 28.3067 45.4753 28.72C45.142 29.1333 44.9753 29.6133 44.9753 30.16C44.9753 30.52 45.062 30.8533 45.2353 31.16C45.422 31.48 45.7086 31.7533 46.0953 31.98C46.4953 32.2067 47.0086 32.38 47.6353 32.5C48.262 32.6333 49.0286 32.7 49.9353 32.7C50.8553 32.7 51.6486 32.6267 52.3153 32.48C52.982 32.3467 53.5286 32.1533 53.9553 31.9C54.3953 31.66 54.7153 31.3667 54.9153 31.02C55.1153 30.6867 55.2153 30.32 55.2153 29.92ZM49.6353 18.24C50.2486 18.24 50.782 18.16 51.2353 18C51.6886 17.8267 52.062 17.5933 52.3553 17.3C52.662 17.0067 52.8886 16.6533 53.0353 16.24C53.1953 15.8267 53.2753 15.3733 53.2753 14.88C53.2753 13.8667 52.9686 13.0667 52.3553 12.48C51.7553 11.88 50.8486 11.58 49.6353 11.58C48.422 11.58 47.5086 11.88 46.8953 12.48C46.2953 13.0667 45.9953 13.8667 45.9953 14.88C45.9953 15.36 46.0686 15.8067 46.2153 16.22C46.3753 16.6333 46.602 16.9933 46.8953 17.3C47.202 17.5933 47.582 17.8267 48.0353 18C48.502 18.16 49.0353 18.24 49.6353 18.24ZM71.9966 8.16C73.5166 8.16 74.8966 8.40667 76.1366 8.9C77.3899 9.39333 78.4566 10.0933 79.3366 11C80.2299 11.9067 80.9166 13.0133 81.3966 14.32C81.8766 15.6267 82.1166 17.0867 82.1166 18.7C82.1166 20.3267 81.8766 21.7933 81.3966 23.1C80.9166 24.4067 80.2299 25.52 79.3366 26.44C78.4566 27.36 77.3899 28.0667 76.1366 28.56C74.8966 29.0533 73.5166 29.3 71.9966 29.3C70.4632 29.3 69.0699 29.0533 67.8166 28.56C66.5632 28.0667 65.4899 27.36 64.5966 26.44C63.7166 25.52 63.0299 24.4067 62.5366 23.1C62.0566 21.7933 61.8166 20.3267 61.8166 18.7C61.8166 17.0867 62.0566 15.6267 62.5366 14.32C63.0299 13.0133 63.7166 11.9067 64.5966 11C65.4899 10.0933 66.5632 9.39333 67.8166 8.9C69.0699 8.40667 70.4632 8.16 71.9966 8.16ZM71.9966 25.5C73.7032 25.5 74.9632 24.9267 75.7766 23.78C76.6032 22.6333 77.0166 20.9533 77.0166 18.74C77.0166 16.5267 76.6032 14.84 75.7766 13.68C74.9632 12.52 73.7032 11.94 71.9966 11.94C70.2632 11.94 68.9766 12.5267 68.1366 13.7C67.3099 14.86 66.8966 16.54 66.8966 18.74C66.8966 20.94 67.3099 22.62 68.1366 23.78C68.9766 24.9267 70.2632 25.5 71.9966 25.5Z" fill="white"/>
</svg>
