<svg width="25" height="24" viewBox="0 0 25 24" fill="none" xmlns="http://www.w3.org/2000/svg">
<path fill-rule="evenodd" clip-rule="evenodd" d="M1.51312 24.0002C0.953591 24.0002 0.495056 23.5451 0.546624 22.9879C1.07186 17.3132 5.96987 12.8662 11.9346 12.8662H24.5V18.9838H11.9346C9.44318 18.9838 7.36484 20.7058 6.88637 22.9941C6.77186 23.5418 6.32913 24.0002 5.7696 24.0002H1.51312Z" fill="white"/>
<path fill-rule="evenodd" clip-rule="evenodd" d="M0.5 23.0176C0.5 14.5413 7.53218 7.66992 16.2068 7.66992H24.5V13.809H16.2068C11.002 13.809 6.78272 17.9318 6.78272 23.0176C6.78272 23.5601 6.34295 23.9998 5.80047 23.9998H1.48225C0.939768 23.9998 0.5 23.5601 0.5 23.0176Z" fill="#4452EE"/>
<path fill-rule="evenodd" clip-rule="evenodd" d="M0.5 21.9785C0.5 13.2563 7.53218 6.18555 16.2068 6.18555H24.5V12.5027H16.2068C11.002 12.5027 6.78272 16.7452 6.78272 21.9785V22.9869C6.78272 23.5464 6.32913 24 5.7696 24H1.51312C0.953591 24 0.5 23.5464 0.5 22.9869V21.9785Z" fill="#23252F"/>
<path fill-rule="evenodd" clip-rule="evenodd" d="M0.5 16.701C0.5 8.16049 7.53218 1.23706 16.2068 1.23706H24.5V7.42263H16.2068C11.002 7.42263 6.78272 11.5767 6.78272 16.701V22.9868C6.78272 23.5464 6.32913 23.9999 5.7696 23.9999H1.51312C0.953591 23.9999 0.5 23.5464 0.5 22.9868V16.701Z" fill="#0F828C"/>
<path fill-rule="evenodd" clip-rule="evenodd" d="M0.5 15.7068C0.5 7.03218 7.53218 0 16.2068 0H23.4869C24.0464 0 24.5 0.453592 24.5 1.01312V6.28272H16.2068C11.002 6.28272 6.78272 10.502 6.78272 15.7068V22.9869C6.78272 23.5464 6.32913 24 5.7696 24H1.51312C0.953591 24 0.5 23.5464 0.5 22.9869V15.7068Z" fill="#20C1CF"/>
<path fill-rule="evenodd" clip-rule="evenodd" d="M19.3275 24C18.7679 24 18.3143 23.5464 18.3143 22.9869V0H23.4868C24.0463 0 24.4999 0.453591 24.4999 1.01312V22.9869C24.4999 23.5464 24.0463 24 23.4868 24H19.3275Z" fill="white"/>
</svg>
